<?xml version="1.0" encoding="utf-8"?>
<!-- Generator: Adobe Illustrator 24.2.1, SVG Export Plug-In . SVG Version: 6.00 Build 0)  -->
<svg version="1.1" id="Layer_1" xmlns="http://www.w3.org/2000/svg" xmlns:xlink="http://www.w3.org/1999/xlink" x="0px" y="0px"
	 viewBox="0 0 203 20" style="enable-background:new 0 0 203 20;" xml:space="preserve" width="203px" height="20px">
<style type="text/css">
	.st0{fill:#8A7B6B;}
</style>
<g>
	<path class="st0" d="M203,9.3c0-0.2-0.2-0.4-0.4-0.4c-2.8-0.9-6.1-1.8-9.3-0.9c-0.2,0-0.4,0.1-0.6,0.2c1.1-1.6,1.8-3.5,1.9-5.5
		c0-0.2,0-0.6-0.1-0.9c-0.1-0.4-0.4-0.7-0.8-0.9c-0.4-0.2-1-0.2-1.5,0c-0.8,0.3-1.3,0.9-1.6,1.5c-1.4,2.2-2,4.9-1.6,7.5h-69
		l-3.6-3.6l-3.6,3.6H109l-7.5-7.5L94,9.9h-3.1l-4.1-4.1l-4.1,4.1H14.2c0.4-2.6-0.2-5.3-1.6-7.5c-0.3-0.5-0.8-1.2-1.6-1.5
		c-0.5-0.2-1-0.1-1.5,0C9.1,1.2,8.8,1.5,8.7,1.9C8.6,2.1,8.6,2.5,8.6,2.7c0.1,2,0.8,3.9,1.9,5.5C10.2,8.1,10,8,9.8,8
		C6.6,7.1,3.3,8,0.5,8.9C0.3,8.9,0.1,9.1,0,9.3s0,0.4,0.2,0.6c0.9,0.9,2.2,1.5,3.7,1.8c0.9,0.1,1.8,0.2,2.6,0.2c0.4,0,0.9,0,1.3,0
		c1,0,2-0.1,3.1-0.3c-1.3,1.8-2.1,3.9-2.3,6.1c0,0.2,0,0.6,0.1,0.9c0.1,0.4,0.4,0.7,0.8,0.9c0.2,0.1,0.5,0.2,0.8,0.2
		c0.2,0,0.4,0,0.7-0.1c0.8-0.3,1.3-0.9,1.6-1.5c1.3-2,1.9-4.5,1.7-6.9h69.5l3,3l3-3H94l7.5,7.5l7.5-7.5h3.7l3.6,3.6l3.6-3.6h68.9
		c-0.2,2.4,0.4,4.9,1.7,6.9c0.3,0.5,0.8,1.2,1.6,1.5c0.2,0.1,0.4,0.1,0.7,0.1c0.3,0,0.6,0,0.8-0.2c0.4-0.2,0.7-0.5,0.8-0.9
		c0.1-0.3,0.1-0.6,0.1-0.9c-0.1-2.2-0.9-4.3-2.3-6.1c1.1,0.2,2.1,0.2,3.1,0.3c0.4,0,0.8,0,1.3,0c0.8,0,1.7,0,2.6-0.2
		c1.5-0.3,2.7-0.9,3.7-1.8C202.9,9.8,203,9.6,203,9.3z M191.4,3c0.2-0.4,0.6-0.8,1-1c0.1,0,0.1,0,0.2,0s0.2,0,0.3,0
		c0,0,0.1,0.1,0.2,0.2c0,0.1,0,0.2,0,0.4c-0.1,2.6-1.3,5-3.2,6.7C189.7,7.2,190.2,4.9,191.4,3z M9.8,2.2C9.9,2.1,9.9,2.1,10,2
		c0.1,0,0.2,0,0.3,0c0.1,0,0.1,0,0.2,0c0.4,0.1,0.8,0.6,1,1c1.2,1.9,1.7,4.1,1.5,6.3c-1.9-1.7-3.1-4.1-3.2-6.7
		C9.8,2.5,9.8,2.3,9.8,2.2z M7.7,10.6c-1.1,0-2.4,0-3.6-0.1C3.4,10.3,2.6,10.1,2,9.7C4.4,9,7,8.5,9.5,9.2c0.7,0.2,1.5,0.5,2.1,0.9
		C10.3,10.5,9,10.6,7.7,10.6z M11.6,17.3c-0.2,0.4-0.6,0.8-1,1c-0.2,0-0.4,0-0.5,0c0,0-0.1-0.1-0.2-0.2c0-0.1,0-0.2,0-0.4
		c0.1-2.6,1.3-5,3.2-6.7C13.3,13.2,12.8,15.5,11.6,17.3z M193.2,18.1c0,0.1-0.1,0.1-0.2,0.2c-0.1,0.1-0.4,0.1-0.5,0
		c-0.4-0.1-0.8-0.6-1-1c-1.2-1.9-1.7-4.1-1.5-6.3h0c1.9,1.7,3,4.1,3.2,6.7C193.2,17.9,193.2,18,193.2,18.1z M198.9,10.4
		c-1.2,0.2-2.5,0.2-3.6,0.1c-1.2,0-2.6-0.1-3.8-0.5c0.6-0.4,1.4-0.7,2.1-0.9c2.4-0.7,5.1-0.1,7.5,0.5
		C200.4,10,199.6,10.3,198.9,10.4z"/>
	<path class="st0" d="M197.4,5.6c0.9,0,1.7-0.8,1.7-1.7s-0.8-1.7-1.7-1.7c-0.9,0-1.7,0.8-1.7,1.7S196.4,5.6,197.4,5.6z M197.4,3.4
		c0.2,0,0.4,0.2,0.4,0.4s-0.2,0.4-0.4,0.4c-0.2,0-0.4-0.2-0.4-0.4S197.1,3.4,197.4,3.4z"/>
	<path class="st0" d="M197.4,13.4c-0.9,0-1.7,0.8-1.7,1.7c0,0.9,0.8,1.7,1.7,1.7c0.9,0,1.7-0.8,1.7-1.7
		C199.1,14.1,198.3,13.4,197.4,13.4z M197.4,15.5c-0.2,0-0.4-0.2-0.4-0.4c0-0.2,0.2-0.4,0.4-0.4c0.2,0,0.4,0.2,0.4,0.4
		C197.8,15.3,197.6,15.5,197.4,15.5z"/>
	<path class="st0" d="M5.6,5.6c0.9,0,1.7-0.8,1.7-1.7S6.6,2.1,5.6,2.1S3.9,2.9,3.9,3.9S4.7,5.6,5.6,5.6z M5.6,3.4
		c0.2,0,0.4,0.2,0.4,0.4S5.9,4.3,5.6,4.3c-0.2,0-0.4-0.2-0.4-0.4C5.2,3.6,5.4,3.4,5.6,3.4z"/>
	<path class="st0" d="M5.6,13.4c-0.9,0-1.7,0.8-1.7,1.7c0,0.9,0.8,1.7,1.7,1.7s1.7-0.8,1.7-1.7C7.3,14.1,6.6,13.4,5.6,13.4z
		 M5.6,15.5c-0.2,0-0.4-0.2-0.4-0.4c0-0.2,0.2-0.4,0.4-0.4c0.2,0,0.4,0.2,0.4,0.4C6.1,15.3,5.9,15.5,5.6,15.5z"/>
</g>
</svg>
